<svg xmlns="http://www.w3.org/2000/svg" xmlns:xlink="http://www.w3.org/1999/xlink" width="1073" height="1073" viewBox="0 0 1073 1073">
  <defs>
    <radialGradient id="radial-gradient" cx="0.5" cy="0.5" r="0.5" gradientUnits="objectBoundingBox">
      <stop offset="0" stop-color="#162c4c"/>
      <stop offset="0.787" stop-color="#162c4c"/>
      <stop offset="0.82" stop-color="#162c4c"/>
      <stop offset="1" stop-color="#122847"/>
    </radialGradient>
    <radialGradient id="radial-gradient-2" cx="0.5" cy="0.5" r="0.5" gradientUnits="objectBoundingBox">
      <stop offset="0" stop-color="#314564"/>
      <stop offset="0.732" stop-color="#314564"/>
      <stop offset="1" stop-color="#293d5b"/>
    </radialGradient>
    <radialGradient id="radial-gradient-3" cx="0.5" cy="0.5" r="0.5" gradientUnits="objectBoundingBox">
      <stop offset="0" stop-color="#4d6081"/>
      <stop offset="0.812" stop-color="#4d6081"/>
      <stop offset="1" stop-color="#43577a"/>
    </radialGradient>
    <radialGradient id="radial-gradient-4" cx="0.5" cy="0.5" r="0.5" gradientUnits="objectBoundingBox">
      <stop offset="0" stop-color="#fff"/>
      <stop offset="1" stop-color="#d1d1d1"/>
    </radialGradient>
    <filter id="Ellipse_7" x="406" y="330" width="31" height="31" filterUnits="userSpaceOnUse">
      <feOffset input="SourceAlpha"/>
      <feGaussianBlur stdDeviation="3" result="blur"/>
      <feFlood flood-color="#fff" flood-opacity="0.588"/>
      <feComposite operator="in" in2="blur"/>
      <feComposite in="SourceGraphic"/>
    </filter>
    <filter id="Ellipse_8" x="665" y="259" width="37" height="37" filterUnits="userSpaceOnUse">
      <feOffset input="SourceAlpha"/>
      <feGaussianBlur stdDeviation="3" result="blur-2"/>
      <feFlood flood-color="#fff" flood-opacity="0.588"/>
      <feComposite operator="in" in2="blur-2"/>
      <feComposite in="SourceGraphic"/>
    </filter>
    <filter id="Ellipse_9" x="447" y="337" width="26" height="26" filterUnits="userSpaceOnUse">
      <feOffset input="SourceAlpha"/>
      <feGaussianBlur stdDeviation="3" result="blur-3"/>
      <feFlood flood-color="#fff" flood-opacity="0.588"/>
      <feComposite operator="in" in2="blur-3"/>
      <feComposite in="SourceGraphic"/>
    </filter>
    <filter id="Ellipse_10" x="652" y="366" width="31" height="31" filterUnits="userSpaceOnUse">
      <feOffset input="SourceAlpha"/>
      <feGaussianBlur stdDeviation="3" result="blur-4"/>
      <feFlood flood-color="#fff" flood-opacity="0.588"/>
      <feComposite operator="in" in2="blur-4"/>
      <feComposite in="SourceGraphic"/>
    </filter>
    <filter id="Ellipse_11" x="364" y="433" width="23" height="23" filterUnits="userSpaceOnUse">
      <feOffset input="SourceAlpha"/>
      <feGaussianBlur stdDeviation="3" result="blur-5"/>
      <feFlood flood-color="#fff" flood-opacity="0.588"/>
      <feComposite operator="in" in2="blur-5"/>
      <feComposite in="SourceGraphic"/>
    </filter>
    <filter id="Ellipse_12" x="730" y="279" width="31" height="31" filterUnits="userSpaceOnUse">
      <feOffset input="SourceAlpha"/>
      <feGaussianBlur stdDeviation="3" result="blur-6"/>
      <feFlood flood-color="#fff" flood-opacity="0.588"/>
      <feComposite operator="in" in2="blur-6"/>
      <feComposite in="SourceGraphic"/>
    </filter>
    <filter id="Ellipse_13" x="312" y="292" width="31" height="31" filterUnits="userSpaceOnUse">
      <feOffset input="SourceAlpha"/>
      <feGaussianBlur stdDeviation="3" result="blur-7"/>
      <feFlood flood-color="#fff" flood-opacity="0.588"/>
      <feComposite operator="in" in2="blur-7"/>
      <feComposite in="SourceGraphic"/>
    </filter>
    <filter id="Ellipse_14" x="261" y="509" width="31" height="31" filterUnits="userSpaceOnUse">
      <feOffset input="SourceAlpha"/>
      <feGaussianBlur stdDeviation="3" result="blur-8"/>
      <feFlood flood-color="#fff" flood-opacity="0.588"/>
      <feComposite operator="in" in2="blur-8"/>
      <feComposite in="SourceGraphic"/>
    </filter>
    <filter id="Ellipse_15" x="255" y="381" width="26" height="26" filterUnits="userSpaceOnUse">
      <feOffset input="SourceAlpha"/>
      <feGaussianBlur stdDeviation="3" result="blur-9"/>
      <feFlood flood-color="#fff" flood-opacity="0.588"/>
      <feComposite operator="in" in2="blur-9"/>
      <feComposite in="SourceGraphic"/>
    </filter>
    <filter id="Ellipse_16" x="398" y="189" width="26" height="26" filterUnits="userSpaceOnUse">
      <feOffset input="SourceAlpha"/>
      <feGaussianBlur stdDeviation="3" result="blur-10"/>
      <feFlood flood-color="#fff" flood-opacity="0.588"/>
      <feComposite operator="in" in2="blur-10"/>
      <feComposite in="SourceGraphic"/>
    </filter>
    <filter id="Ellipse_17" x="739" y="314" width="22" height="22" filterUnits="userSpaceOnUse">
      <feOffset input="SourceAlpha"/>
      <feGaussianBlur stdDeviation="3" result="blur-11"/>
      <feFlood flood-color="#fff" flood-opacity="0.588"/>
      <feComposite operator="in" in2="blur-11"/>
      <feComposite in="SourceGraphic"/>
    </filter>
    <filter id="Ellipse_18" x="709" y="393" width="22" height="22" filterUnits="userSpaceOnUse">
      <feOffset input="SourceAlpha"/>
      <feGaussianBlur stdDeviation="3" result="blur-12"/>
      <feFlood flood-color="#fff" flood-opacity="0.588"/>
      <feComposite operator="in" in2="blur-12"/>
      <feComposite in="SourceGraphic"/>
    </filter>
    <filter id="Ellipse_19" x="746" y="442" width="22" height="22" filterUnits="userSpaceOnUse">
      <feOffset input="SourceAlpha"/>
      <feGaussianBlur stdDeviation="3" result="blur-13"/>
      <feFlood flood-color="#fff" flood-opacity="0.588"/>
      <feComposite operator="in" in2="blur-13"/>
      <feComposite in="SourceGraphic"/>
    </filter>
    <filter id="Ellipse_20" x="816" y="432" width="22" height="22" filterUnits="userSpaceOnUse">
      <feOffset input="SourceAlpha"/>
      <feGaussianBlur stdDeviation="3" result="blur-14"/>
      <feFlood flood-color="#fff" flood-opacity="0.588"/>
      <feComposite operator="in" in2="blur-14"/>
      <feComposite in="SourceGraphic"/>
    </filter>
    <filter id="Ellipse_21" x="800" y="371" width="22" height="22" filterUnits="userSpaceOnUse">
      <feOffset input="SourceAlpha"/>
      <feGaussianBlur stdDeviation="3" result="blur-15"/>
      <feFlood flood-color="#fff" flood-opacity="0.588"/>
      <feComposite operator="in" in2="blur-15"/>
      <feComposite in="SourceGraphic"/>
    </filter>
    <filter id="Ellipse_22" x="796" y="414" width="31" height="31" filterUnits="userSpaceOnUse">
      <feOffset input="SourceAlpha"/>
      <feGaussianBlur stdDeviation="3" result="blur-16"/>
      <feFlood flood-color="#fff" flood-opacity="0.588"/>
      <feComposite operator="in" in2="blur-16"/>
      <feComposite in="SourceGraphic"/>
    </filter>
    <filter id="Ellipse_23" x="463" y="224" width="26" height="26" filterUnits="userSpaceOnUse">
      <feOffset input="SourceAlpha"/>
      <feGaussianBlur stdDeviation="3" result="blur-17"/>
      <feFlood flood-color="#fff" flood-opacity="0.588"/>
      <feComposite operator="in" in2="blur-17"/>
      <feComposite in="SourceGraphic"/>
    </filter>
    <filter id="Ellipse_24" x="679" y="498" width="23" height="23" filterUnits="userSpaceOnUse">
      <feOffset input="SourceAlpha"/>
      <feGaussianBlur stdDeviation="3" result="blur-18"/>
      <feFlood flood-color="#fff" flood-opacity="0.588"/>
      <feComposite operator="in" in2="blur-18"/>
      <feComposite in="SourceGraphic"/>
    </filter>
    <filter id="Ellipse_25" x="608" y="201" width="26" height="26" filterUnits="userSpaceOnUse">
      <feOffset input="SourceAlpha"/>
      <feGaussianBlur stdDeviation="3" result="blur-19"/>
      <feFlood flood-color="#fff" flood-opacity="0.588"/>
      <feComposite operator="in" in2="blur-19"/>
      <feComposite in="SourceGraphic"/>
    </filter>
    <filter id="Ellipse_26" x="569" y="157" width="23" height="23" filterUnits="userSpaceOnUse">
      <feOffset input="SourceAlpha"/>
      <feGaussianBlur stdDeviation="3" result="blur-20"/>
      <feFlood flood-color="#fff" flood-opacity="0.588"/>
      <feComposite operator="in" in2="blur-20"/>
      <feComposite in="SourceGraphic"/>
    </filter>
    <linearGradient id="linear-gradient" x1="0.5" x2="0.5" y2="1" gradientUnits="objectBoundingBox">
      <stop offset="0" stop-color="#ba723c"/>
      <stop offset="1" stop-color="#9f6132"/>
    </linearGradient>
    <filter id="Tracé_18" x="369.193" y="381.345" width="174.307" height="166.813" filterUnits="userSpaceOnUse">
      <feOffset dx="1" dy="2" input="SourceAlpha"/>
      <feGaussianBlur stdDeviation="2" result="blur-21"/>
      <feFlood flood-color="#54b2b0"/>
      <feComposite operator="in" in2="blur-21"/>
      <feComposite in="SourceGraphic"/>
    </filter>
    <filter id="Tracé_17" x="388.898" y="338.454" width="134.391" height="133.131" filterUnits="userSpaceOnUse">
      <feOffset dx="1" dy="2" input="SourceAlpha"/>
      <feGaussianBlur stdDeviation="2" result="blur-22"/>
      <feFlood flood-color="#54b2b0"/>
      <feComposite operator="in" in2="blur-22"/>
      <feComposite in="SourceGraphic"/>
    </filter>
    <filter id="Tracé_16" x="409.127" y="319" width="96.936" height="89.285" filterUnits="userSpaceOnUse">
      <feOffset dx="1" dy="2" input="SourceAlpha"/>
      <feGaussianBlur stdDeviation="2" result="blur-23"/>
      <feFlood flood-color="#54b2b0"/>
      <feComposite operator="in" in2="blur-23"/>
      <feComposite in="SourceGraphic"/>
    </filter>
    <filter id="Tracé_18-2" x="423.008" y="374.125" width="228.986" height="218.968" filterUnits="userSpaceOnUse">
      <feOffset dx="1" dy="2" input="SourceAlpha"/>
      <feGaussianBlur stdDeviation="2" result="blur-24"/>
      <feFlood flood-color="#54b2b0"/>
      <feComposite operator="in" in2="blur-24"/>
      <feComposite in="SourceGraphic"/>
    </filter>
    <filter id="Tracé_17-2" x="449.348" y="316.785" width="175.623" height="173.938" filterUnits="userSpaceOnUse">
      <feOffset dx="1" dy="2" input="SourceAlpha"/>
      <feGaussianBlur stdDeviation="2" result="blur-25"/>
      <feFlood flood-color="#54b2b0"/>
      <feComposite operator="in" in2="blur-25"/>
      <feComposite in="SourceGraphic"/>
    </filter>
    <filter id="Tracé_16-2" x="476.393" y="290.777" width="125.549" height="115.321" filterUnits="userSpaceOnUse">
      <feOffset dx="1" dy="2" input="SourceAlpha"/>
      <feGaussianBlur stdDeviation="2" result="blur-26"/>
      <feFlood flood-color="#54b2b0"/>
      <feComposite operator="in" in2="blur-26"/>
      <feComposite in="SourceGraphic"/>
    </filter>
    <radialGradient id="radial-gradient-24" cx="0.5" cy="0.5" r="0.5" gradientUnits="objectBoundingBox">
      <stop offset="0" stop-color="#f9d27a"/>
      <stop offset="1" stop-color="#ffe4a7"/>
    </radialGradient>
    <filter id="Polygone_5" x="279.502" y="574.584" width="46.879" height="46.88" filterUnits="userSpaceOnUse">
      <feOffset input="SourceAlpha"/>
      <feGaussianBlur stdDeviation="4" result="blur-27"/>
      <feFlood flood-color="#fff" flood-opacity="0.451"/>
      <feComposite operator="in" in2="blur-27"/>
      <feComposite in="SourceGraphic"/>
    </filter>
    <filter id="Polygone_6" x="506" y="245.305" width="63.033" height="61.472" filterUnits="userSpaceOnUse">
      <feOffset input="SourceAlpha"/>
      <feGaussianBlur stdDeviation="4" result="blur-28"/>
      <feFlood flood-color="#fff" flood-opacity="0.451"/>
      <feComposite operator="in" in2="blur-28"/>
      <feComposite in="SourceGraphic"/>
    </filter>
    <filter id="Polygone_7" x="797" y="231.44" width="42" height="42" filterUnits="userSpaceOnUse">
      <feOffset input="SourceAlpha"/>
      <feGaussianBlur stdDeviation="4" result="blur-29"/>
      <feFlood flood-color="#fff" flood-opacity="0.451"/>
      <feComposite operator="in" in2="blur-29"/>
      <feComposite in="SourceGraphic"/>
    </filter>
  </defs>
  <g id="Groupe_23" data-name="Groupe 23" transform="translate(-21257 -767)">
    <circle id="Ellipse_5" data-name="Ellipse 5" cx="536.5" cy="536.5" r="536.5" transform="translate(21257 767)" fill="#071e3d"/>
    <circle id="Ellipse_6" data-name="Ellipse 6" cx="418" cy="418" r="418" transform="translate(21381 856)" fill="url(#radial-gradient)"/>
    <circle id="Ellipse_4" data-name="Ellipse 4" cx="300.5" cy="300.5" r="300.5" transform="translate(21493 956)" fill="url(#radial-gradient-2)"/>
    <circle id="Ellipse_3" data-name="Ellipse 3" cx="215.5" cy="215.5" r="215.5" transform="translate(21578 1041)" fill="url(#radial-gradient-3)"/>
    <circle id="Ellipse_2" data-name="Ellipse 2" cx="137.5" cy="137.5" r="137.5" transform="translate(21656 1119)" fill="#e1f0ff"/>
    <g transform="matrix(1, 0, 0, 1, 21257, 767)" filter="url(#Ellipse_7)">
      <circle id="Ellipse_7-2" data-name="Ellipse 7" cx="6.5" cy="6.5" r="6.5" transform="translate(415 339)" fill="url(#radial-gradient-4)"/>
    </g>
    <g transform="matrix(1, 0, 0, 1, 21257, 767)" filter="url(#Ellipse_8)">
      <circle id="Ellipse_8-2" data-name="Ellipse 8" cx="9.5" cy="9.5" r="9.5" transform="translate(674 268)" fill="url(#radial-gradient-4)"/>
    </g>
    <g transform="matrix(1, 0, 0, 1, 21257, 767)" filter="url(#Ellipse_9)">
      <circle id="Ellipse_9-2" data-name="Ellipse 9" cx="4" cy="4" r="4" transform="translate(456 346)" fill="url(#radial-gradient-4)"/>
    </g>
    <g transform="matrix(1, 0, 0, 1, 21257, 767)" filter="url(#Ellipse_10)">
      <circle id="Ellipse_10-2" data-name="Ellipse 10" cx="6.5" cy="6.5" r="6.5" transform="translate(661 375)" fill="url(#radial-gradient-4)"/>
    </g>
    <g transform="matrix(1, 0, 0, 1, 21257, 767)" filter="url(#Ellipse_11)">
      <circle id="Ellipse_11-2" data-name="Ellipse 11" cx="2.5" cy="2.5" r="2.5" transform="translate(373 442)" fill="url(#radial-gradient-4)"/>
    </g>
    <g transform="matrix(1, 0, 0, 1, 21257, 767)" filter="url(#Ellipse_12)">
      <circle id="Ellipse_12-2" data-name="Ellipse 12" cx="6.5" cy="6.5" r="6.5" transform="translate(739 288)" fill="url(#radial-gradient-4)"/>
    </g>
    <g transform="matrix(1, 0, 0, 1, 21257, 767)" filter="url(#Ellipse_13)">
      <circle id="Ellipse_13-2" data-name="Ellipse 13" cx="6.5" cy="6.5" r="6.5" transform="translate(321 301)" fill="url(#radial-gradient-4)"/>
    </g>
    <g transform="matrix(1, 0, 0, 1, 21257, 767)" filter="url(#Ellipse_14)">
      <circle id="Ellipse_14-2" data-name="Ellipse 14" cx="6.5" cy="6.5" r="6.5" transform="translate(270 518)" fill="url(#radial-gradient-4)"/>
    </g>
    <g transform="matrix(1, 0, 0, 1, 21257, 767)" filter="url(#Ellipse_15)">
      <circle id="Ellipse_15-2" data-name="Ellipse 15" cx="4" cy="4" r="4" transform="translate(264 390)" fill="url(#radial-gradient-4)"/>
    </g>
    <g transform="matrix(1, 0, 0, 1, 21257, 767)" filter="url(#Ellipse_16)">
      <circle id="Ellipse_16-2" data-name="Ellipse 16" cx="4" cy="4" r="4" transform="translate(407 198)" fill="url(#radial-gradient-4)"/>
    </g>
    <g transform="matrix(1, 0, 0, 1, 21257, 767)" filter="url(#Ellipse_17)">
      <circle id="Ellipse_17-2" data-name="Ellipse 17" cx="2" cy="2" r="2" transform="translate(748 323)" fill="url(#radial-gradient-4)"/>
    </g>
    <g transform="matrix(1, 0, 0, 1, 21257, 767)" filter="url(#Ellipse_18)">
      <circle id="Ellipse_18-2" data-name="Ellipse 18" cx="2" cy="2" r="2" transform="translate(718 402)" fill="url(#radial-gradient-4)"/>
    </g>
    <g transform="matrix(1, 0, 0, 1, 21257, 767)" filter="url(#Ellipse_19)">
      <circle id="Ellipse_19-2" data-name="Ellipse 19" cx="2" cy="2" r="2" transform="translate(755 451)" fill="url(#radial-gradient-4)"/>
    </g>
    <g transform="matrix(1, 0, 0, 1, 21257, 767)" filter="url(#Ellipse_20)">
      <circle id="Ellipse_20-2" data-name="Ellipse 20" cx="2" cy="2" r="2" transform="translate(825 441)" fill="url(#radial-gradient-4)"/>
    </g>
    <g transform="matrix(1, 0, 0, 1, 21257, 767)" filter="url(#Ellipse_21)">
      <circle id="Ellipse_21-2" data-name="Ellipse 21" cx="2" cy="2" r="2" transform="translate(809 380)" fill="url(#radial-gradient-4)"/>
    </g>
    <g transform="matrix(1, 0, 0, 1, 21257, 767)" filter="url(#Ellipse_22)">
      <circle id="Ellipse_22-2" data-name="Ellipse 22" cx="6.5" cy="6.5" r="6.5" transform="translate(805 423)" fill="url(#radial-gradient-4)"/>
    </g>
    <g transform="matrix(1, 0, 0, 1, 21257, 767)" filter="url(#Ellipse_23)">
      <circle id="Ellipse_23-2" data-name="Ellipse 23" cx="4" cy="4" r="4" transform="translate(472 233)" fill="url(#radial-gradient-4)"/>
    </g>
    <g transform="matrix(1, 0, 0, 1, 21257, 767)" filter="url(#Ellipse_24)">
      <circle id="Ellipse_24-2" data-name="Ellipse 24" cx="2.5" cy="2.5" r="2.5" transform="translate(688 507)" fill="url(#radial-gradient-4)"/>
    </g>
    <g transform="matrix(1, 0, 0, 1, 21257, 767)" filter="url(#Ellipse_25)">
      <circle id="Ellipse_25-2" data-name="Ellipse 25" cx="4" cy="4" r="4" transform="translate(617 210)" fill="url(#radial-gradient-4)"/>
    </g>
    <g transform="matrix(1, 0, 0, 1, 21257, 767)" filter="url(#Ellipse_26)">
      <circle id="Ellipse_26-2" data-name="Ellipse 26" cx="2.5" cy="2.5" r="2.5" transform="translate(578 166)" fill="url(#radial-gradient-4)"/>
    </g>
    <g id="Groupe_22" data-name="Groupe 22" transform="translate(89.916 -60.598)">
      <path id="Tracé_19" data-name="Tracé 19" d="M20661.6,1300.482c14.25,22.907,7.941,38.994,7.941,38.994,17.508,3.167,26.266,3.354,43.219,0,0,0-1.434-1-.879-12.176s10.617-25.7,10.617-25.7Z" transform="translate(931.043 57.556)" fill="url(#linear-gradient)"/>
      <g transform="matrix(1, 0, 0, 1, 21167.08, 827.6)" filter="url(#Tracé_18)">
        <path id="Tracé_18-3" data-name="Tracé 18" d="M79.956,14.053a8.454,8.454,0,0,1,15.136,0l72.459,136.436c3.253,6.125-.929,13.691-7.568,13.691,0,0-37.878-3.6-74.108-3.6s-70.811,3.6-70.811,3.6c-6.639,0-10.821-7.566-7.568-13.691Z" transform="translate(367.82 375.98)" fill="#46a86d"/>
      </g>
      <g transform="matrix(1, 0, 0, 1, 21167.08, 827.6)" filter="url(#Tracé_17)">
        <path id="Tracé_17-3" data-name="Tracé 17" d="M60.256,14.041a8.054,8.054,0,0,1,14.63,0l52.791,102.753c3.147,6.125-.9,13.694-7.315,13.694,0,0-26.8-2.928-53.193-2.928s-52.388,2.928-52.388,2.928c-6.419,0-10.462-7.568-7.315-13.694Z" transform="translate(387.52 333.1)" fill="#50af76"/>
      </g>
      <path id="Tracé_13" data-name="Tracé 13" d="M261.736,318.614c-25.034,3.754-105.7-32.561-105.7-32.561l2.722-8.174,19.833-30.1,50.562,6.146,13.131,23.952Z" transform="translate(21421.637 963.38)" fill="#fff" opacity="0.18"/>
      <g transform="matrix(1, 0, 0, 1, 21167.08, 827.6)" filter="url(#Tracé_16)">
        <path id="Tracé_16-3" data-name="Tracé 16" d="M40.871,13.974a9.189,9.189,0,0,1,16,0L90.139,72.881a9.189,9.189,0,0,1-8,13.707A168.114,168.114,0,0,0,48.8,82.681a165.64,165.64,0,0,0-33.189,3.906,9.189,9.189,0,0,1-8-13.707Z" transform="translate(407.72 313.7)" fill="#70bc8f"/>
      </g>
    </g>
    <text id="Adventure_is_key" data-name="Adventure is key" transform="translate(21614 1615)" fill="#bee6de" font-size="42" font-family="SegoeUI-Semibold, Segoe UI" font-weight="600"><tspan x="0" y="0">ADVENTURE IS KEY</tspan></text>
    <g id="Groupe_21" data-name="Groupe 21" transform="translate(143.729 -88.821)">
      <path id="Tracé_19-2" data-name="Tracé 19" d="M20661.6,1300.482c19.051,30.624,10.613,52.13,10.613,52.13,23.412,4.234,35.119,4.483,57.785,0,0,0-1.922-1.34-1.176-16.278s14.2-34.359,14.2-34.359Z" transform="translate(948.347 127.44)" fill="url(#linear-gradient)"/>
      <g transform="matrix(1, 0, 0, 1, 21113.27, 855.82)" filter="url(#Tracé_18-2)">
        <path id="Tracé_18-4" data-name="Tracé 18" d="M104.746,15.632a11.3,11.3,0,0,1,20.235,0l96.87,182.4c4.349,8.189-1.242,18.3-10.117,18.3,0,0-50.639-4.814-99.074-4.814s-94.666,4.814-94.666,4.814c-8.875,0-14.466-10.115-10.117-18.3Z" transform="translate(421.64 368.76)" fill="#64cfb9"/>
      </g>
      <g transform="matrix(1, 0, 0, 1, 21113.27, 855.82)" filter="url(#Tracé_17-2)">
        <path id="Tracé_17-4" data-name="Tracé 17" d="M78.408,15.619c4.289-8.349,15.269-8.349,19.558,0l70.575,137.37c4.207,8.189-1.2,18.307-9.779,18.307,0,0-35.826-3.914-71.113-3.914S17.612,171.3,17.612,171.3c-8.581,0-13.986-10.118-9.779-18.307Z" transform="translate(447.97 311.43)" fill="#63ccb7"/>
      </g>
      <path id="Tracé_13-2" data-name="Tracé 13" d="M297.344,342.476c-33.468,5.019-141.3-43.531-141.3-43.531l3.639-10.928,26.515-40.237,67.6,8.216,17.555,32.021Z" transform="translate(21433.898 983.784)" fill="#fff" opacity="0.1"/>
      <g transform="matrix(1, 0, 0, 1, 21113.27, 855.82)" filter="url(#Tracé_16-2)">
        <path id="Tracé_16-4" data-name="Tracé 16" d="M52.483,15.547a12.284,12.284,0,0,1,21.393,0L118.348,94.3a12.284,12.284,0,0,1-10.7,18.325S85.314,107.4,63.078,107.4s-44.37,5.222-44.37,5.222A12.284,12.284,0,0,1,8.011,94.3Z" transform="translate(474.99 285.47)" fill="#6cd7c1"/>
      </g>
    </g>
    <g transform="matrix(1, 0, 0, 1, 21257, 767)" filter="url(#Polygone_5)">
      <path id="Polygone_5-2" data-name="Polygone 5" d="M8.087,2.043a1,1,0,0,1,1.826,0l1.559,3.489a1,1,0,0,0,.782.583l3.719.492a1,1,0,0,1,.571,1.7l-2.8,2.761a1,1,0,0,0-.282.891l.712,3.909a1,1,0,0,1-1.485,1.045L9.5,15.07a1,1,0,0,0-1,0L5.31,16.916a1,1,0,0,1-1.485-1.045l.712-3.909a1,1,0,0,0-.282-.891l-2.8-2.761a1,1,0,0,1,.571-1.7l3.719-.492a1,1,0,0,0,.782-.583Z" transform="translate(297.36 586.58) rotate(19)" fill="url(#radial-gradient-24)"/>
    </g>
    <g transform="matrix(1, 0, 0, 1, 21257, 767)" filter="url(#Polygone_6)">
      <path id="Polygone_6-2" data-name="Polygone 6" d="M17.7,3.9a2,2,0,0,1,3.626,0l3.576,7.683a2,2,0,0,0,1.561,1.14l8.375,1.063a2,2,0,0,1,1.123,3.436L29.784,23.07a2,2,0,0,0-.59,1.825l1.589,8.382A2,2,0,0,1,27.847,35.4l-7.359-4.089a2,2,0,0,0-1.943,0L11.187,35.4A2,2,0,0,1,8.25,33.277l1.589-8.382a2,2,0,0,0-.59-1.825L3.068,17.218a2,2,0,0,1,1.123-3.436l8.375-1.063a2,2,0,0,0,1.561-1.14Z" transform="translate(518 257.3)" fill="url(#radial-gradient-24)"/>
    </g>
    <g transform="matrix(1, 0, 0, 1, 21257, 767)" filter="url(#Polygone_7)">
      <path id="Polygone_7-2" data-name="Polygone 7" d="M8.087,2.043a1,1,0,0,1,1.826,0l1.559,3.489a1,1,0,0,0,.782.583l3.719.492a1,1,0,0,1,.571,1.7l-2.8,2.761a1,1,0,0,0-.282.891l.712,3.909a1,1,0,0,1-1.485,1.045L9.5,15.07a1,1,0,0,0-1,0L5.31,16.916a1,1,0,0,1-1.485-1.045l.712-3.909a1,1,0,0,0-.282-.891l-2.8-2.761a1,1,0,0,1,.571-1.7l3.719-.492a1,1,0,0,0,.782-.583Z" transform="translate(809 243.44)" fill="url(#radial-gradient-24)"/>
    </g>
  </g>
</svg>
