<svg id="book" xmlns="http://www.w3.org/2000/svg" width="34.771" height="34.771" viewBox="0 0 34.771 34.771">
  <path id="Tracé_118" data-name="Tracé 118" d="M348.351,172.187h-.267a1.019,1.019,0,1,1,0-2.037h.267a4.419,4.419,0,0,0,4.414-4.414,1.7,1.7,0,0,0-1.7-1.7h-2.716a1.019,1.019,0,0,1-1.019-1.019c0-.563,1.475-1.019,2.037-1.019h1.7a3.739,3.739,0,0,1,3.735,3.735A6.459,6.459,0,0,1,348.351,172.187Z" transform="translate(-323.495 -150.998)" fill="#d5d3ea"/>
  <path id="Tracé_119" data-name="Tracé 119" d="M47.258,385.149H19.075a4.075,4.075,0,0,1,0-8.149H47.258A6.791,6.791,0,0,0,47.258,385.149Z" transform="translate(-13.981 -351.397)" fill="#f9f9f9"/>
  <path id="Tracé_120" data-name="Tracé 120" d="M256,377v8.149h15.891a6.791,6.791,0,0,1,0-8.149Z" transform="translate(-238.615 -351.397)" fill="#e2dff4"/>
  <path id="Tracé_121" data-name="Tracé 121" d="M123.243,424.037H111.019a1.019,1.019,0,1,1,0-2.037h12.224a1.019,1.019,0,1,1,0,2.037Z" transform="translate(-102.53 -393.342)" fill="#e2dff4"/>
  <path id="Tracé_122" data-name="Tracé 122" d="M353.056,424.037h-2.037a1.019,1.019,0,1,1,0-2.037h2.037a1.019,1.019,0,1,1,0,2.037Z" transform="translate(-326.231 -393.342)" fill="#d5d3ea"/>
  <path id="Tracé_123" data-name="Tracé 123" d="M139.489,9.508a1.019,1.019,0,0,1-1.019-1.019.68.68,0,0,0-.679-.679h-3.735a3.056,3.056,0,0,1,0-6.112h11.205a.68.68,0,0,0,.679-.679,1.019,1.019,0,0,1,2.037,0,2.72,2.72,0,0,1-2.716,2.716H134.056a1.019,1.019,0,0,0,0,2.037h3.735a2.72,2.72,0,0,1,2.716,2.716A1.019,1.019,0,0,1,139.489,9.508Z" transform="translate(-122.104)" fill="#f9f9f9"/>
  <g id="Groupe_321" data-name="Groupe 321" transform="translate(8.896 11.002)">
    <path id="Tracé_124" data-name="Tracé 124" d="M147.978,162H132.019A1.019,1.019,0,0,0,131,163.019v3.056a1.019,1.019,0,0,0,1.019,1.019h14.94a1.019,1.019,0,0,0,1.019-1.019Z" transform="translate(-131 -162)" fill="#f9f9f9"/>
    <path id="Tracé_125" data-name="Tracé 125" d="M256,167.093h7.47a1.019,1.019,0,0,0,1.019-1.019V162H256Z" transform="translate(-247.511 -162)" fill="#e2dff4"/>
    <path id="Tracé_126" data-name="Tracé 126" d="M131,222v1.894a10.149,10.149,0,0,0,4.529,8.461,1.019,1.019,0,0,0,.565.171h6.791a1.019,1.019,0,0,0,.565-.171,10.149,10.149,0,0,0,4.529-8.461V222Z" transform="translate(-131 -217.925)" fill="#9d5e4a"/>
    <g id="Groupe_320" data-name="Groupe 320" transform="translate(8.489 4.075)">
      <path id="Tracé_127" data-name="Tracé 127" d="M256,232.526h3.4a1.019,1.019,0,0,0,.565-.171,10.149,10.149,0,0,0,4.529-8.461V222H256Z" transform="translate(-256 -222)" fill="#6b5c59"/>
    </g>
  </g>
  <g id="Groupe_322" data-name="Groupe 322" transform="translate(0 24.584)">
    <path id="Tracé_128" data-name="Tracé 128" d="M33.752,372.187H5.093a5.093,5.093,0,0,1,0-10.187H33.752a1.019,1.019,0,1,1,0,2.037H5.093a3.056,3.056,0,1,0,0,6.112H33.752a1.019,1.019,0,0,1,0,2.037Z" transform="translate(0 -362)" fill="#f2b143"/>
  </g>
  <g id="Groupe_325" data-name="Groupe 325" transform="translate(17.385)">
    <path id="Tracé_129" data-name="Tracé 129" d="M259.328,422H256v2.037h3.328a1.019,1.019,0,1,0,0-2.037Z" transform="translate(-256 -393.342)" fill="#d5d3ea"/>
    <g id="Groupe_323" data-name="Groupe 323">
      <path id="Tracé_130" data-name="Tracé 130" d="M262.452,1.019a.68.68,0,0,1-.679.679H256V3.735h5.772a2.72,2.72,0,0,0,2.716-2.716,1.019,1.019,0,1,0-2.037,0Z" transform="translate(-256)" fill="#e2dff4"/>
      <path id="Tracé_131" data-name="Tracé 131" d="M257.019,95.926A2.712,2.712,0,0,0,256,93.808v3.137A1.019,1.019,0,0,0,257.019,95.926Z" transform="translate(-256 -87.437)" fill="#e2dff4"/>
    </g>
    <g id="Groupe_324" data-name="Groupe 324" transform="translate(0 24.584)">
      <path id="Tracé_132" data-name="Tracé 132" d="M272.367,482H256v2.037h16.367a1.019,1.019,0,0,0,0-2.037Z" transform="translate(-256 -473.851)" fill="#fe7913"/>
      <path id="Tracé_133" data-name="Tracé 133" d="M272.367,362H256v2.037h16.367a1.019,1.019,0,0,0,0-2.037Z" transform="translate(-256 -362)" fill="#fe7913"/>
    </g>
  </g>
</svg>
