<svg xmlns="http://www.w3.org/2000/svg" width="34.517" height="30" viewBox="0 0 34.517 30">
  <g id="send" transform="translate(0 -33.499)">
    <path id="Tracé_114" data-name="Tracé 114" d="M34.473,34.807,26.248,61.773a1.012,1.012,0,0,1-1.57.517L10.226,51.565.646,47.86a1.011,1.011,0,0,1,0-1.888l32.494-12.4a1.011,1.011,0,0,1,1.328,1.24Z" transform="translate(0 -0.001)" fill="#75e89c"/>
    <path id="Tracé_115" data-name="Tracé 115" d="M198.617,39.62l-8.225,26.966a1.012,1.012,0,0,1-1.57.517L176.01,57.594l22.4-18.933a1.011,1.011,0,0,1,.2.959Z" transform="translate(-164.144 -4.814)" fill="#13cb51"/>
    <path id="Tracé_116" data-name="Tracé 116" d="M169.464,35.206l-18.3,19.308-4.247,8.429A1.011,1.011,0,0,1,145,62.488V50.67a1.012,1.012,0,0,1,.425-.824l22.719-16.159a1.011,1.011,0,0,1,1.32,1.52Z" transform="translate(-135.225)" fill="#eefff7"/>
    <path id="Tracé_117" data-name="Tracé 117" d="M169.464,40.02l-18.3,19.308-4.247,8.429A1.011,1.011,0,0,1,145,67.3l2.091-9.708,22.4-18.933A1.011,1.011,0,0,1,169.464,40.02Z" transform="translate(-135.225 -4.814)" fill="#c2e6c3"/>
  </g>
</svg>
