<svg xmlns="http://www.w3.org/2000/svg" width="38.497" height="34.985" viewBox="0 0 38.497 34.985">
  <g id="code" transform="translate(0 -23.356)">
    <path id="Tracé_188" data-name="Tracé 188" d="M243.253,399.6v-4.515l-7.269-1.505,1.505,6.02Z" transform="translate(-218.241 -342.387)" fill="#9abadb"/>
    <g id="Groupe_332" data-name="Groupe 332" transform="translate(13.484 44.42)">
      <path id="Tracé_189" data-name="Tracé 189" d="M179.337,399.6H185.1v-6.02l-5.764,1.505Z" transform="translate(-179.337 -386.808)" fill="#d1e8ff"/>
      <path id="Tracé_190" data-name="Tracé 190" d="M256.737,305.013l-20.753-1.5,1.505,8.277h19.248Z" transform="translate(-231.725 -303.508)" fill="#d1e8ff"/>
    </g>
    <path id="Tracé_191" data-name="Tracé 191" d="M0,305.013v6.772H19.248v-8.277Z" transform="translate(0 -259.088)" fill="#f5f5ff"/>
    <path id="Tracé_192" data-name="Tracé 192" d="M255.895,458.644h-9.15l-.753,1.128.753,1.128h9.15Z" transform="translate(-227.496 -402.559)" fill="#d1e8ff"/>
    <rect id="Rectangle_188" data-name="Rectangle 188" width="9.151" height="2.256" transform="translate(10.098 56.085)" fill="#f5f5ff"/>
    <path id="Tracé_193" data-name="Tracé 193" d="M256.737,23.356H237.489l-1.505,11.285,1.505,11.285h19.248Z" transform="translate(-218.241 0)" fill="#294b6e"/>
    <rect id="Rectangle_189" data-name="Rectangle 189" width="19.248" height="22.57" transform="translate(0 23.356)" fill="#6283a3"/>
    <path id="Tracé_194" data-name="Tracé 194" d="M105.33,105.917l-5.976-5.976,5.976-5.976,1.6,1.595-4.381,4.381,4.381,4.381Z" transform="translate(-91.884 -65.301)" fill="#f5f5ff"/>
    <g id="Groupe_333" data-name="Groupe 333" transform="translate(16.751 27.429)">
      <path id="Tracé_195" data-name="Tracé 195" d="M313.554,105.917l-1.595-1.595,4.381-4.381-4.381-4.381,1.595-1.595,5.976,5.976Z" transform="translate(-305.254 -92.73)" fill="#d1e8ff"/>
      <rect id="Rectangle_190" data-name="Rectangle 190" width="2.256" height="14.258" transform="matrix(-0.981, -0.195, 0.195, -0.981, 2.212, 14.424)" fill="#d1e8ff"/>
    </g>
  </g>
</svg>
