<svg xmlns="http://www.w3.org/2000/svg" xmlns:xlink="http://www.w3.org/1999/xlink" width="287" height="72.058" viewBox="0 0 287 72.058">
  <defs>
    <linearGradient id="linear-gradient" x1="-0.001" y1="0.539" x2="0.995" y2="0.539" gradientUnits="objectBoundingBox">
      <stop offset="0" stop-color="#ff5e62"/>
      <stop offset="1" stop-color="#ff8566"/>
    </linearGradient>
    <linearGradient id="linear-gradient-2" x1="0" y1="0.503" x2="0.998" y2="0.503" xlink:href="#linear-gradient"/>
  </defs>
  <g id="MM" transform="translate(-8.5 -2.9)">
    <g id="Groupe_517" data-name="Groupe 517" transform="translate(8.5 14.294)">
      <path id="Tracé_783" data-name="Tracé 783" d="M70.432,10.324A2.325,2.325,0,0,0,69.2,12.479c0,.616,0,.924.308,1.232s.616.924,1.232.924,1.232.308,1.848.308a5.24,5.24,0,0,0,2.156-.308l1.848-.924c.308-.308.616-.616.616-.924a1.131,1.131,0,0,0,.308-.924v-1.54c-.616-.308-1.232-.308-1.848-.616-.616,0-1.232-.308-1.848-.308A5.532,5.532,0,0,0,70.432,10.324Z" transform="translate(117.72 -0.778)" fill="url(#linear-gradient)"/>
      <path id="Tracé_784" data-name="Tracé 784" d="M216.975,15.53l15.089.616h3.079v3.7c0,1.54.308,2.771,1.232,3.387a4.909,4.909,0,0,0,3.7,1.232,7.653,7.653,0,0,0,2.464-.308c.924-.308,1.54-.308,2.464-.616l-.616-3.7c-.308,0-.616.308-1.232.308h-1.232a1.6,1.6,0,0,1-1.232-.616c-.308-.308-.308-.924-.308-1.848V16.454l6.775.308v3.079c0,1.54.308,2.771,1.232,3.387a4.909,4.909,0,0,0,3.7,1.232,7.653,7.653,0,0,0,2.464-.308c.924-.308,1.54-.308,2.464-.616l-.616-3.7c-.308,0-.616.308-1.232.308h-1.232a1.6,1.6,0,0,1-1.232-.616c-.308-.308-.308-.924-.308-1.848V17.07l5.851.308c0,.308.308.924.308,1.232a10.815,10.815,0,0,0,5.235,5.235,9.836,9.836,0,0,0,4.311.924,15.6,15.6,0,0,0,4-.616,6.39,6.39,0,0,0,3.079-1.848,9.589,9.589,0,0,0,2.156-2.771L273.02,18.3a2.776,2.776,0,0,1-1.848,1.848,4.576,4.576,0,0,1-2.771.616,7.247,7.247,0,0,1-2.464-.616c-.924-.308-1.232-.924-1.848-1.54-.308-.308-.308-.924-.616-1.232L293.96,18.61a1.455,1.455,0,0,1,1.54,1.54l-1.848,45.575a1.455,1.455,0,0,1-1.54,1.54L10.04,55.255a1.455,1.455,0,0,1-1.54-1.54L10.348,8.14a1.455,1.455,0,0,1,1.54-1.54L160.93,13.067V24.153h5.235V13.375h3.387l3.387,6.467h2.771l3.079-6.159,3.387.308V24.153h5.235V14.3l5.543.308-.924.924a6.208,6.208,0,0,0-.924,3.387A5.2,5.2,0,0,0,192.032,22a5.7,5.7,0,0,0,2.464,2.156,6.208,6.208,0,0,0,3.387.924,8.2,8.2,0,0,0,3.7-.924,12.057,12.057,0,0,0,3.079-2.464v.924a1.693,1.693,0,0,0,.924,1.54,4.451,4.451,0,0,0,2.156.616h.924a2.328,2.328,0,0,0,1.232-.308v-4c-.308,0-.616-.308-.924-.308s-.308-.616-.308-1.232v-3.7h3.387a13.1,13.1,0,0,0,.616,3.387,10.815,10.815,0,0,0,5.235,5.235,9.836,9.836,0,0,0,4.311.924,15.6,15.6,0,0,0,4-.616,6.39,6.39,0,0,0,3.079-1.848,9.589,9.589,0,0,0,2.156-2.771L227.137,18.3a2.776,2.776,0,0,1-1.848,1.848,4.576,4.576,0,0,1-2.771.616,7.247,7.247,0,0,1-2.464-.616c-.924-.308-1.232-.924-1.848-1.54Z" transform="translate(-8.5 -6.6)" fill="url(#linear-gradient-2)"/>
    </g>
    <g id="Groupe_518" data-name="Groupe 518" transform="translate(160.93 2.9)">
      <path id="Tracé_785" data-name="Tracé 785" d="M79.248,29.475V12.23L72.473,25.164H69.7L62.927,12.23V29.475H58V3.3h5.543l7.7,14.781L78.94,3.3h5.543V29.475Z" transform="translate(-58 -2.068)" fill="#fff"/>
      <path id="Tracé_786" data-name="Tracé 786" d="M67.7,19.357a6.207,6.207,0,0,1,.924-3.387A6.092,6.092,0,0,1,71.7,13.814a9.787,9.787,0,0,1,4.311-.616,6.78,6.78,0,0,1,2.464.308,4.451,4.451,0,0,1,2.156.616V12.891A3,3,0,0,0,79.4,10.119,4.953,4.953,0,0,0,76.014,9.2a10.941,10.941,0,0,0-3.079.616,28.484,28.484,0,0,0-3.079,1.54L68.624,7.964a9.544,9.544,0,0,1,4-1.848A18.174,18.174,0,0,1,76.938,5.5c2.771,0,4.927.616,6.467,2.156a7.411,7.411,0,0,1,2.464,5.851v6.159c0,.616,0,.924.308,1.232a1.131,1.131,0,0,0,.924.308v4a1.851,1.851,0,0,0-1.232.308h-.924a3.589,3.589,0,0,1-2.156-.616,1.693,1.693,0,0,1-.924-1.54v-.924A7.82,7.82,0,0,1,78.786,24.9a8.2,8.2,0,0,1-3.7.924A6.208,6.208,0,0,1,71.7,24.9a8.285,8.285,0,0,1-4-5.543Zm12.01.924c.308-.308.616-.616.616-.924a1.131,1.131,0,0,0,.308-.924V16.586c-.616-.308-1.232-.308-1.848-.616-.616,0-1.232-.308-1.848-.308a4.6,4.6,0,0,0-3.079.924,2.325,2.325,0,0,0-1.232,2.156c0,.616,0,.924.308,1.232s.616.924,1.232.924,1.232.308,1.848.308A5.24,5.24,0,0,0,78.17,20.9C78.786,20.589,79.094,20.589,79.71,20.281Z" transform="translate(-37.83 2.506)" fill="#fff"/>
      <path id="Tracé_787" data-name="Tracé 787" d="M84.762,30.615a9.836,9.836,0,0,1-4.311-.924,7.86,7.86,0,0,1-3.079-2.156,11.059,11.059,0,0,1-2.156-3.079,7.812,7.812,0,0,1-.616-3.7,9.036,9.036,0,0,1,1.232-4.927,11.706,11.706,0,0,1,14.781-3.7A7.835,7.835,0,0,1,94,15.833a12.911,12.911,0,0,1,1.232,4.927V22.3H80.143a3.5,3.5,0,0,0,.924,2.464,8.164,8.164,0,0,0,1.848,1.54,5.8,5.8,0,0,0,2.464.616,8.992,8.992,0,0,0,2.771-.616A5.228,5.228,0,0,0,90,24.456l4.311,1.232a16.923,16.923,0,0,1-2.156,2.771,10.249,10.249,0,0,1-3.079,1.848C87.533,30.307,86.3,30.615,84.762,30.615ZM90,9.367H79.835a3.5,3.5,0,0,0,.924,2.464,3.154,3.154,0,0,0,1.848,1.54,5.235,5.235,0,0,0,4.927,0,8.164,8.164,0,0,0,1.848-1.54A13.853,13.853,0,0,1,90,9.367ZM83.53,5.056a2.156,2.156,0,1,1-4.311,0,2.156,2.156,0,1,1,4.311,0Zm6.775,0a2.156,2.156,0,1,1-4.311,0,2.156,2.156,0,1,1,4.311,0Z" transform="translate(-23.482 -2.9)" fill="#fff"/>
      <path id="Tracé_788" data-name="Tracé 788" d="M83.332,3H86.1a1.325,1.325,0,0,1,1.232,1.232V23.94c0,.924,0,1.54.308,1.848a1.6,1.6,0,0,0,1.232.616h1.232c.308,0,.924-.308,1.232-.308l.616,3.7a5.8,5.8,0,0,1-2.464.616,6.78,6.78,0,0,1-2.464.308,4.908,4.908,0,0,1-3.7-1.232A4.631,4.631,0,0,1,82.1,26.1V4.54C82.408,3.616,82.716,3,83.332,3Z" transform="translate(-7.886 -2.692)" fill="#fff"/>
      <path id="Tracé_789" data-name="Tracé 789" d="M87.132,3H89.9a1.325,1.325,0,0,1,1.232,1.232V23.94c0,.924,0,1.54.308,1.848a1.6,1.6,0,0,0,1.232.616h1.232c.308,0,.924-.308,1.232-.308l.616,3.7a5.8,5.8,0,0,1-2.464.616,6.78,6.78,0,0,1-2.464.308,4.908,4.908,0,0,1-3.7-1.232A4.631,4.631,0,0,1,85.9,26.1V4.54C86.208,3.616,86.516,3,87.132,3Z" transform="translate(0.015 -2.692)" fill="#fff"/>
      <path id="Tracé_790" data-name="Tracé 790" d="M99.562,25.208a9.836,9.836,0,0,1-4.311-.924,7.86,7.86,0,0,1-3.079-2.156,11.06,11.06,0,0,1-2.156-3.079,7.812,7.812,0,0,1-.616-3.7,9.036,9.036,0,0,1,1.232-4.927,10.615,10.615,0,0,1,3.7-3.7A10.546,10.546,0,0,1,99.87,5.5a10.546,10.546,0,0,1,5.543,1.232,7.836,7.836,0,0,1,3.387,3.7,12.911,12.911,0,0,1,1.232,4.927v1.54H94.943a3.5,3.5,0,0,0,.924,2.464,8.164,8.164,0,0,0,1.848,1.54,5.8,5.8,0,0,0,2.464.616,8.991,8.991,0,0,0,2.771-.616,5.229,5.229,0,0,0,1.848-1.848l4.311,1.232a16.924,16.924,0,0,1-2.156,2.771,10.249,10.249,0,0,1-3.079,1.848C102.333,24.9,101.1,25.208,99.562,25.208ZM94.635,13.814H104.8a3.5,3.5,0,0,0-.924-2.464,3.154,3.154,0,0,0-1.848-1.54,5.235,5.235,0,0,0-4.927,0,8.164,8.164,0,0,0-1.848,1.54A5.8,5.8,0,0,0,94.635,13.814Z" transform="translate(7.293 2.506)" fill="#fff"/>
    </g>
    <path id="Tracé_791" data-name="Tracé 791" d="M46.756,42.283V25.038L39.981,37.664H37.21L30.435,24.73V41.975H25.2V15.8h5.543l7.7,14.781L46.14,15.8h5.543V41.975H46.756Z" transform="translate(34.726 26.824)" fill="#fff"/>
    <path id="Tracé_792" data-name="Tracé 792" d="M44.346,15.8h5.235l9.546,26.175H53.892l-2.156-6.467H42.191l-2.156,6.467H34.8ZM50.5,32.121l-3.7-10.778-3.7,10.778Z" transform="translate(54.688 26.824)" fill="#fff"/>
    <path id="Tracé_793" data-name="Tracé 793" d="M48.835,25.138V42.075H43.6V15.9h4.311L61.461,33.145V15.9H66.7V42.075H62.384Z" transform="translate(72.987 27.032)" fill="#fff"/>
    <path id="Tracé_794" data-name="Tracé 794" d="M52.8,42.075V15.9h5.235V42.075Z" transform="translate(92.117 27.032)" fill="#fff"/>
    <path id="Tracé_795" data-name="Tracé 795" d="M56.3,42.075V15.9H73.853v4.619H61.227v6.775H71.7v4H61.227V42.075Z" transform="translate(99.395 27.032)" fill="#fff"/>
    <path id="Tracé_796" data-name="Tracé 796" d="M71.346,15.8h5.235l9.546,26.175H80.892l-2.156-6.467H69.191l-2.156,6.467H61.8ZM77.5,32.121l-3.7-10.778-3.7,10.778Z" transform="translate(110.832 26.824)" fill="#fff"/>
    <path id="Tracé_797" data-name="Tracé 797" d="M69.8,28.941a12.356,12.356,0,0,1,.924-4.619,19.634,19.634,0,0,1,2.464-4.311,13.813,13.813,0,0,1,4-3.079A14.709,14.709,0,0,1,82.734,15.7a12.128,12.128,0,0,1,6.159,1.54,10.009,10.009,0,0,1,4,4l-4,3.079a4.789,4.789,0,0,0-1.848-2.464,17.663,17.663,0,0,0-2.156-1.232,6.78,6.78,0,0,0-2.464-.308,6.208,6.208,0,0,0-3.387.924A8.3,8.3,0,0,0,76.575,23.4a12.482,12.482,0,0,0-1.54,2.771,10.941,10.941,0,0,0-.616,3.079,13.1,13.1,0,0,0,.616,3.387,8.074,8.074,0,0,0,1.54,2.771,4.789,4.789,0,0,0,2.464,1.848,5.064,5.064,0,0,0,3.079.616,6.78,6.78,0,0,0,2.464-.308,9.22,9.22,0,0,0,2.464-1.232,3.564,3.564,0,0,0,1.54-2.156L92.9,36.64a8.733,8.733,0,0,1-2.464,3.387,16.591,16.591,0,0,1-4,2.156,10.481,10.481,0,0,1-4.311.616,10.121,10.121,0,0,1-5.235-1.232,19.77,19.77,0,0,1-4-3.079,20.651,20.651,0,0,1-2.771-4.311C70.108,32.329,69.8,30.789,69.8,28.941Z" transform="translate(127.467 26.616)" fill="#fff"/>
    <path id="Tracé_798" data-name="Tracé 798" d="M78.5,42.075V15.9h5.235V42.075Z" transform="translate(145.558 27.032)" fill="#fff"/>
    <path id="Tracé_799" data-name="Tracé 799" d="M100.168,37.456v4.619H82V15.9H99.861v4.619H86.927v6.467H98.013v4H86.927v6.775h13.241Z" transform="translate(152.836 27.032)" fill="#fff"/>
    <path id="Tracé_800" data-name="Tracé 800" d="M89.2,42.075V15.9h11.7a11.07,11.07,0,0,1,3.387.616l2.771,1.848c.924.616,1.232,1.848,1.848,2.771a10.942,10.942,0,0,1,.616,3.079,9.111,9.111,0,0,1-.616,3.079,12.483,12.483,0,0,1-1.54,2.771,7.411,7.411,0,0,1-2.464,1.848l5.851,9.854h-5.543l-5.543-8.93H94.435v8.93H89.2Zm4.927-13.241h6.467a4.377,4.377,0,0,0,1.848-.616,3.074,3.074,0,0,0,1.232-1.54,4.566,4.566,0,0,0,.308-2.156,4.451,4.451,0,0,0-.616-2.156,6.717,6.717,0,0,0-1.232-1.54,4.377,4.377,0,0,0-1.848-.616H94.127Z" transform="translate(167.807 27.032)" fill="#fff"/>
  </g>
</svg>
